# xmcd
#
# Track frame offsets: 
#        150
#        16477
#        30352
#        41690
#        55997
#        73447
#        88290
#        104545
#
# Disc length: 1576 seconds
#
# Revision: 3
# Processed by: cddbd v1.5.2PL0 Copyright (c) Steve Scherf et al.
# Submitted via: ExactAudioCopy v1.0b3
#
DISCID=6f062608
DTITLE=Johnny Griffin - JG
DYEAR=1956
DGENRE=Jazz
TTITLE0=I Cried For You
TTITLE1=Satin Wrap
TTITLE2=Yesterdays
TTITLE3=Riff-Raff
TTITLE4=Bee-Ees
TTITLE5=The Boy Next Door
TTITLE6=These Foolish Things
TTITLE7=Lollypop
EXTD=
EXTT0=
EXTT1=
EXTT2=
EXTT3=
EXTT4=
EXTT5=
EXTT6=
EXTT7=
PLAYORDER=
